#!OML:ASF G:\JayActor3\Patient Classification 1\Patient 1\Session 6\male.ASF
:FULLY-SPECIFIED
:DEGREES
701
root 5.2447 15.9554 -22.575 175.831 -49.5044 -183.47
lowerback -0.107019 -2.16159 3.23552
upperback 1.65135 -2.95112 0.475223
thorax 1.61708 -1.44407 -1.36394
lowerneck -6.59526 4.32867 2.98314
upperneck 20.4351 7.1933 -12.9453
head 7.96484 2.08526 -4.22287
rclavicle 5.32246e-014 2.38542e-015
rhumerus -41.6216 -5.43697 -82.3297
rradius 66.3671
rwrist 17.3101
rhand 3.13498 -10.5222
rfingers 7.12502
rthumb 28.5895 -38.3558
lclavicle 5.32246e-014 2.38542e-015
lhumerus -32.8742 20.094 72.1272
lradius 36.9824
lwrist 26.0012
lhand -20.3351 8.07032
lfingers 7.12502
lthumb 6.01626 37.9649
rfemur -19.7224 8.65449 17.7649
rtibia 69.3072
rfoot -14.2501 -11.1851
rtoes -19.7057
lfemur -4.01664 28.4827 -21.9596
ltibia 30.1997
lfoot -15.5761 -16.4747
ltoes 13.5757
702
root 5.2114 15.9481 -22.5935 175.816 -49.7805 -183.417
lowerback 0.0241404 -2.23691 3.16688
upperback 1.58061 -3.04431 0.526155
thorax 1.4726 -1.49485 -1.26682
lowerneck -6.60659 4.34246 2.97962
upperneck 20.6068 7.23414 -13.0413
head 8.03178 2.07998 -4.25666
rclavicle 1.99779e-014 7.15625e-015
rhumerus -42.0423 -5.69616 -81.6389
rradius 67.5756
rwrist 17.9315
rhand 4.33464 -10.6444
rfingers 7.12502
rthumb 29.7351 -38.2793
lclavicle 1.99779e-014 7.15625e-015
lhumerus -32.6729 19.7618 72.1995
lradius 38.0615
lwrist 26.7143
lhand -20.1767 8.08431
lfingers 7.12502
lthumb 6.16921 37.9745
rfemur -20.2358 9.11952 17.8821
rtibia 68.5455
rfoot -14.6332 -11.3248
rtoes -20.0141
lfemur -4.00859 28.2964 -21.9182
ltibia 30.4144
lfoot -15.7456 -16.6403
ltoes 13.6149
703
root 5.17832 15.9409 -22.6121 175.816 -50.0422 -183.382
lowerback 0.14933 -2.30083 3.09953
upperback 1.51104 -3.1225 0.568818
thorax 1.33327 -1.53773 -1.17868
lowerneck -6.57838 4.35189 2.96747
upperneck 20.7172 7.26302 -13.1207
head 8.06897 2.07553 -4.28322
rclavicle 1.09182e-013 1.66979e-014
rhumerus -42.4405 -5.94304 -80.9404
rradius 68.7949
rwrist 18.5142
rhand 5.41665 -10.7534
rfingers 7.12502
rthumb 30.7673 -38.1989
lclavicle 1.09182e-013 1.66979e-014
lhumerus -32.4925 19.4066 72.2833
lradius 39.1682
lwrist 27.3709
lhand -19.9719 8.11108
lfingers 7.12502
lthumb 6.36691 37.9954
rfemur -20.7297 9.60958 17.9516
rtibia 67.7534
rfoot -15.0122 -11.3251
rtoes -20.2535
lfemur -3.9831 28.1672 -21.876
ltibia 30.5991
lfoot -15.8966 -16.849
ltoes 13.6674
704
root 5.14491 15.9338 -22.6309 175.834 -50.2903 -183.375
lowerback 0.251043 -2.35032 3.03281
upperback 1.46486 -3.183 0.594866
thorax 1.23121 -1.57077 -1.10923
lowerneck -6.54616 4.35031 2.95255
upperneck 20.7692 7.27233 -13.1835
head 8.08335 2.06822 -4.30374
rclavicle -5.14852e-014 2.14687e-014
rhumerus -42.7812 -6.19862 -80.2442
rradius 70.0166
rwrist 19.0629
rhand 6.36902 -10.8986
rfingers 7.12502
rthumb 31.6749 -38.1692
lclavicle -5.14852e-014 2.14687e-014
lhumerus -32.2907 19.0347 72.3831
lradius 40.288
lwrist 27.9512
lhand -19.7262 8.1447
lfingers 7.12502
lthumb 6.60414 38.0217
rfemur -21.194 10.1048 17.9651
rtibia 66.9399
rfoot -15.3944 -11.2454
rtoes -20.4228
lfemur -3.92203 28.1044 -21.8355
ltibia 30.7406
lfoot -16.0199 -17.1088
ltoes 13.7557
705
root 5.11104 15.9271 -22.6496 175.879 -50.5166 -183.404
lowerback 0.325307 -2.38481 2.96492
upperback 1.43573 -3.22489 0.605425
thorax 1.16218 -1.59367 -1.05651
lowerneck -6.49969 4.34208 2.93945
upperneck 20.7672 7.26813 -13.2368
head 8.07532 2.06043 -4.32107
rclavicle 4.40308e-014 -1.43125e-014
rhumerus -43.0646 -6.46509 -79.5494
rradius 71.2302
rwrist 19.5975
rhand 7.17012 -11.0521
rfingers 7.12502
rthumb 32.4376 -38.1693
lclavicle 4.40308e-014 -1.43125e-014
lhumerus -32.0824 18.655 72.4944
lradius 41.4181
lwrist 28.4423
lhand -19.462 8.14829
lfingers 7.12502
lthumb 6.85917 38.0172
rfemur -21.6389 10.6024 17.9191
rtibia 66.1159
rfoot -15.7907 -11.1373
rtoes -20.443
lfemur -3.82852 28.105 -21.806
ltibia 30.8325
lfoot -16.1201 -17.4084
ltoes 13.8773
706
root 5.07648 15.9213 -22.6683 175.953 -50.7247 -183.467
lowerback 0.362692 -2.40793 2.8934
upperback 1.42406 -3.25337 0.603123
thorax 1.13184 -1.60907 -1.01706
lowerneck -6.43822 4.32573 2.91467
upperneck 20.7196 7.24923 -13.2765
head 8.04694 2.05012 -4.33186
rclavicle 6.22693e-014 2.46493e-014
rhumerus -43.2815 -6.74078 -78.8572
rradius 72.4239
rwrist 20.1284
rhand 7.811 -11.1906
rfingers 7.12502
rthumb 33.0473 -38.1808
lclavicle 6.22693e-014 2.46493e-014
lhumerus -31.8675 18.2839 72.6156
lradius 42.5494
lwrist 28.843
lhand -19.2048 8.12734
lfingers 7.12502
lthumb 7.10747 37.988
rfemur -22.0622 11.0926 17.818
rtibia 65.2859
rfoot -16.205 -11.0479
rtoes -20.374
lfemur -3.7042 28.1621 -21.7884
ltibia 30.8762
lfoot -16.1978 -17.7423
ltoes 14.0182
707
root 5.0413 15.9155 -22.6872 176.074 -50.9245 -183.585
lowerback 0.36999 -2.42125 2.80601
upperback 1.42657 -3.26985 0.582207
thorax 1.13318 -1.61788 -0.989612
lowerneck -6.37928 4.30422 2.89616
upperneck 20.6448 7.22086 -13.3103
head 8.00902 2.03884 -4.34162
rclavicle 3.85642e-014 -2.94201e-014
rhumerus -43.4323 -7.03483 -78.1729
rradius 73.5932
rwrist 20.6576
rhand 8.29736 -11.3245
rfingers 7.12502
rthumb 33.5097 -38.2157
lclavicle 3.85642e-014 -2.94201e-014
lhumerus -31.6489 17.917 72.7449
lradius 43.6824
lwrist 29.1608
lhand -18.9743 8.06435
lfingers 7.12502
lthumb 7.32994 37.9174
rfemur -22.4683 11.5903 17.6574
rtibia 64.4628
rfoot -16.6449 -11.0134
rtoes -20.2426
lfemur -3.55627 28.2662 -21.7977
ltibia 30.8778
lfoot -16.2547 -18.1118
ltoes 14.2062
708
root 5.00619 15.9101 -22.7062 176.226 -51.1188 -183.723
lowerback 0.343863 -2.42854 2.71419
upperback 1.43819 -3.27948 0.552505
thorax 1.16263 -1.62278 -0.970529
lowerneck -6.32409 4.27752 2.88563
upperneck 20.546 7.18455 -13.3491
head 7.96354 2.02588 -4.3544
rclavicle 5.24295e-014 1.59028e-014
rhumerus -43.5096 -7.34792 -77.4964
rradius 74.7316
rwrist 21.1583
rhand 8.66517 -11.4182
rfingers 7.12502
rthumb 33.8592 -38.2331
lclavicle 5.24295e-014 1.59028e-014
lhumerus -31.4299 17.5695 72.8791
lradius 44.8131
lwrist 29.4088
lhand -18.7864 7.96951
lfingers 7.12502
lthumb 7.51132 37.8161
rfemur -22.8698 12.1054 17.4661
rtibia 63.6484
rfoot -17.0989 -11.045
rtoes -20.0811
lfemur -3.40845 28.3909 -21.8208
ltibia 30.8463
lfoot -16.2843 -18.4972
ltoes 14.4378
709
root 4.97143 15.9054 -22.7258 176.419 -51.3128 -183.889
lowerback 0.298518 -2.43379 2.60575
upperback 1.441 -3.28628 0.515953
thorax 1.19443 -1.62633 -0.949875
lowerneck -6.26976 4.24994 2.86838
upperneck 20.4521 7.14627 -13.3774
head 7.91909 2.01218 -4.36267
rclavicle -1.58034e-014 2.70347e-014
rhumerus -43.5532 -7.64955 -76.8318
rradius 75.8585
rwrist 21.6193
rhand 8.89247 -11.5021
rfingers 7.12502
rthumb 34.0751 -38.2692
lclavicle -1.58034e-014 2.70347e-014
lhumerus -31.2454 17.2443 73.01
lradius 45.9424
lwrist 29.5932
lhand -18.6361 7.83008
lfingers 7.12502
lthumb 7.65639 37.6715
rfemur -23.2804 12.6348 17.2425
rtibia 62.8502
rfoot -17.506 -11.1714
rtoes -20.0512
lfemur -3.27164 28.5298 -21.8664
ltibia 30.7896
lfoot -16.2952 -18.8953
ltoes 14.6922
710
root 4.93743 15.9013 -22.7459 176.659 -51.5223 -184.088
lowerback 0.232404 -2.4397 2.47665
upperback 1.44186 -3.29396 0.469221
thorax 1.23637 -1.63029 -0.929088
lowerneck -6.24545 4.21841 2.85902
upperneck 20.3745 7.10442 -13.4069
head 7.88566 1.9956 -4.37307
rclavicle -1.14003e-013 7.95139e-016
rhumerus -43.5532 -7.94996 -76.1855
rradius 76.9697
rwrist 22.0369
rhand 9.00735 -11.5771
rfingers 7.12502
rthumb 34.1842 -38.3198
lclavicle -1.14003e-013 7.95139e-016
lhumerus -31.072 16.943 73.1393
lradius 47.0572
lwrist 29.7114
lhand -18.5139 7.67791
lfingers 7.12502
lthumb 7.77435 37.515
rfemur -23.6945 13.1705 16.984
rtibia 62.0698
rfoot -17.867 -11.3535
rtoes -20.0703
lfemur -3.15001 28.6697 -21.9382
ltibia 30.7103
lfoot -16.2685 -19.3109
ltoes 15.0172
711
root 4.90471 15.8984 -22.7664 176.948 -51.7312 -184.309
lowerback 0.149634 -2.44109 2.33087
upperback 1.4262 -3.29502 0.417842
thorax 1.27159 -1.63118 -0.904073
lowerneck -6.22579 4.1844 2.84545
upperneck 20.3166 7.05979 -13.4308
head 7.85905 1.97634 -4.3816
rclavicle 3.49861e-014 -4.77083e-015
rhumerus -43.5238 -8.25415 -75.5488
rradius 78.0608
rwrist 22.4004
rhand 9.00209 -11.6251
rfingers 7.12502
rthumb 34.1793 -38.3689
lclavicle 3.49861e-014 -4.77083e-015
lhumerus -30.9324 16.6665 73.2635
lradius 48.1511
lwrist 29.7513
lhand -18.4104 7.51568
lfingers 7.12502
lthumb 7.87427 37.349
rfemur -24.1308 13.7091 16.6947
rtibia 61.308
rfoot -18.1585 -11.556
rtoes -20.1705
lfemur -3.05826 28.816 -22.0344
ltibia 30.6101
lfoot -16.2128 -19.7349
ltoes 15.3712
